<svg width="28" height="28" viewBox="0 0 28 28" fill="none" xmlns="http://www.w3.org/2000/svg">
<rect width="28" height="28" rx="10" fill="#DF5532"/>
<path d="M16.3333 15.3333H15.8067L15.62 15.1533C16.2959 14.3693 16.6674 13.3685 16.6667 12.3333C16.6667 11.4763 16.4125 10.6385 15.9364 9.92586C15.4602 9.21325 14.7834 8.65784 13.9916 8.32986C13.1998 8.00188 12.3285 7.91606 11.4879 8.08327C10.6474 8.25047 9.87523 8.66318 9.2692 9.26921C8.66318 9.87523 8.25047 10.6474 8.08326 11.4879C7.91606 12.3285 8.00188 13.1998 8.32986 13.9916C8.65784 14.7834 9.21325 15.4602 9.92586 15.9364C10.6385 16.4125 11.4763 16.6667 12.3333 16.6667C13.4067 16.6667 14.3933 16.2733 15.1533 15.62L15.3333 15.8067V16.3333L18.6667 19.66L19.66 18.6667L16.3333 15.3333ZM12.3333 15.3333C10.6733 15.3333 9.33333 13.9933 9.33333 12.3333C9.33333 10.6733 10.6733 9.33334 12.3333 9.33334C13.9933 9.33334 15.3333 10.6733 15.3333 12.3333C15.3333 13.9933 13.9933 15.3333 12.3333 15.3333Z" fill="white"/>
</svg>
